<svg width="24" height="24" viewBox="0 0 24 24" fill="none" xmlns="http://www.w3.org/2000/svg">
<path d="M3.00014 17.25V21H6.75014L17.8101 9.93001L14.0601 6.18001L3.00014 17.25ZM22.6101 18.36L18.3601 22.61L13.1601 17.41L14.9301 15.64L15.9301 16.64L18.4001 14.16L19.8201 15.58L18.3601 17L19.4201 18L20.8401 16.6L22.6101 18.36ZM6.61014 10.83L1.39014 5.64001L5.64014 1.39001L7.40014 3.16001L4.93014 5.64001L6.00014 6.70001L8.46014 4.22001L9.88014 5.64001L8.46014 7.05001L9.46014 8.05001L6.61014 10.83ZM20.7101 7.00001C21.1001 6.61001 21.1001 6.00001 20.7101 5.59001L18.3701 3.29001C18.0001 2.90001 17.3501 2.90001 16.9601 3.29001L15.1201 5.12001L18.8701 8.87001L20.7101 7.00001Z" fill="black"/>
</svg>
