<svg width="8" height="8" viewBox="0 0 8 8" fill="none" xmlns="http://www.w3.org/2000/svg">
<path d="M0.646039 0.645993C0.692485 0.59943 0.74766 0.562487 0.808405 0.537281C0.869151 0.512074 0.934272 0.4991 1.00004 0.4991C1.06581 0.4991 1.13093 0.512074 1.19167 0.537281C1.25242 0.562487 1.30759 0.59943 1.35404 0.645993L4.00004 3.29299L6.64604 0.645993C6.69253 0.599505 6.74772 0.562629 6.80846 0.53747C6.86919 0.512311 6.9343 0.499362 7.00004 0.499362C7.06578 0.499362 7.13088 0.512311 7.19162 0.53747C7.25236 0.562629 7.30755 0.599505 7.35404 0.645993C7.40053 0.692481 7.4374 0.74767 7.46256 0.80841C7.48772 0.869149 7.50067 0.934249 7.50067 0.999993C7.50067 1.06574 7.48772 1.13084 7.46256 1.19158C7.4374 1.25232 7.40053 1.30751 7.35404 1.35399L4.70704 3.99999L7.35404 6.64599C7.40053 6.69248 7.4374 6.74767 7.46256 6.80841C7.48772 6.86915 7.50067 6.93425 7.50067 6.99999C7.50067 7.06574 7.48772 7.13084 7.46256 7.19158C7.4374 7.25232 7.40053 7.30751 7.35404 7.35399C7.30755 7.40048 7.25236 7.43736 7.19162 7.46252C7.13088 7.48768 7.06578 7.50062 7.00004 7.50062C6.9343 7.50062 6.86919 7.48768 6.80846 7.46252C6.74772 7.43736 6.69253 7.40048 6.64604 7.35399L4.00004 4.70699L1.35404 7.35399C1.30755 7.40048 1.25236 7.43736 1.19162 7.46252C1.13088 7.48768 1.06578 7.50062 1.00004 7.50062C0.934295 7.50062 0.869195 7.48768 0.808455 7.46252C0.747716 7.43736 0.692527 7.40048 0.646039 7.35399C0.599551 7.30751 0.562675 7.25232 0.537516 7.19158C0.512357 7.13084 0.499407 7.06574 0.499407 6.99999C0.499407 6.93425 0.512357 6.86915 0.537516 6.80841C0.562675 6.74767 0.599551 6.69248 0.646039 6.64599L3.29304 3.99999L0.646039 1.35399C0.599476 1.30755 0.562533 1.25237 0.537326 1.19163C0.51212 1.13088 0.499146 1.06576 0.499146 0.999993C0.499146 0.934226 0.51212 0.869105 0.537326 0.80836C0.562533 0.747614 0.599476 0.692439 0.646039 0.645993Z" fill="black"/>
</svg>
